<?xml version="1.0" encoding="UTF-8" standalone="no"?>
<svg width="40px" height="40px" viewBox="0 0 40 40" version="1.1" xmlns="http://www.w3.org/2000/svg" xmlns:xlink="http://www.w3.org/1999/xlink">
    <!-- Generator: Sketch 43.1 (39012) - http://www.bohemiancoding.com/sketch -->
    <title>头像-男</title>
    <desc>Created with Sketch.</desc>
    <defs>
        <rect id="path-1" x="0" y="0" width="40" height="40" rx="5"></rect>
        <path d="M15.2006824,9.32550588 C19.1823294,9.32550588 22.9456235,8.09256471 24.6562118,4.73844706 C24.5630353,4.76715294 21.6068,4.22762353 17.9044471,1.40385882 C13.2378588,-2.15543529 4.48727059,3.13727059 8.34397647,7.09350588 C8.34397647,7.09350588 11.2195059,9.32550588 15.2006824,9.32550588 Z" id="path-3"></path>
    </defs>
    <g id="个人设置" stroke="none" stroke-width="1" fill="none" fill-rule="evenodd">
        <g transform="translate(-717.000000, -195.000000)" id="头像-男">
            <g transform="translate(717.000000, 195.000000)">
                <mask id="mask-2" fill="white">
                    <use xlink:href="#path-1"></use>
                </mask>
                <g id="Mask">
                    <use fill="#E4F6FF" fill-rule="evenodd" xlink:href="#path-1"></use>
                    <rect stroke="#D5DFE7" stroke-width="1" x="0.5" y="0.5" width="39" height="39" rx="5"></rect>
                </g>
                <g id="Group-56" mask="url(#mask-2)">
                    <g transform="translate(4.545455, 2.727273)">
                        <polygon id="Fill-6" stroke="none" fill="#FEE1B9" fill-rule="evenodd" points="18.5964941 27.5009176 15.2282588 36.228062 11.9447294 27.5009176 11.9447294 20.0625647 18.5964941 20.0625647"></polygon>
                        <polygon id="Fill-8" stroke="none" fill="#FFDAAD" fill-rule="evenodd" points="15.2281647 36.2280856 18.5964 27.5009412 18.5964 20.0625882 15.2281647 20.0625882"></polygon>
                        <path d="M7.66974118,11.2356235 C8.5288,11.1191529 9.31632941,11.9259765 9.42974118,13.0360941 C9.54291765,14.1469176 8.93750588,15.1405647 8.07938824,15.2570353 C7.22032941,15.3730353 6.43256471,14.5664471 6.31938824,13.4563294 C6.20644706,12.3457412 6.81091765,11.3516235 7.66974118,11.2356235 Z" id="Fill-10" stroke="none" fill="#FEE1B9" fill-rule="evenodd"></path>
                        <path d="M21.1618824,13.0730118 C21.3054118,11.9593647 22.1157647,11.1330118 22.9717647,11.2276 C23.8272941,11.3226588 24.4044706,12.3019529 24.2602353,13.4156 C24.1164706,14.5292471 23.3063529,15.3553647 22.4510588,15.2612471 C21.5948235,15.1657176 21.0171765,14.1859529 21.1618824,13.0730118 Z" id="Fill-12" stroke="none" fill="#FFD9AC" fill-rule="evenodd"></path>
                        <path d="M8.23058824,8.18529412 L8.23058824,15.8589412 C8.23058824,17.3422353 10.6284706,21.5805882 12.7910588,21.7568235 C13.8724706,21.8450588 15.2941176,21.9667059 15.2941176,21.9667059 C15.2941176,21.9667059 16.7152941,21.8450588 17.7971765,21.7568235 C19.9590588,21.5805882 22.3336471,17.3422353 22.3336471,15.8589412 L22.3336471,8.39494118 C22.3336471,4.62764706 15.2941176,4.11235294 15.2941176,4.11235294 C15.2941176,4.11235294 8.23058824,4.418 8.23058824,8.18529412 Z" id="Fill-14" stroke="none" fill="#FEE1B9" fill-rule="evenodd"></path>
                        <path d="M8.23058824,8.18529412 L8.23058824,15.8589412 C8.23058824,17.3422353 10.6284706,21.5805882 12.7910588,21.7568235 C13.8724706,21.8450588 15.2941176,21.9667059 15.2941176,21.9667059 C15.2941176,21.9667059 16.7152941,21.8450588 17.7971765,21.7568235 C19.9590588,21.5805882 22.3336471,17.3422353 22.3336471,15.8589412 L22.3336471,8.39494118 C22.3336471,4.62764706 15.2941176,4.11235294 15.2941176,4.11235294 C15.2941176,4.11235294 8.23058824,4.418 8.23058824,8.18529412 Z" id="Fill-16" stroke="none" fill="#FEE1B9" fill-rule="evenodd"></path>
                        <path d="M22.3336471,15.8589882 C22.3336471,17.3420471 19.9357647,21.5806353 17.7731765,21.7568706 C16.6917647,21.8451059 15.2703529,21.9667529 15.2703529,21.9667529 L15.2703529,4.1124 C15.2703529,4.1124 22.3336471,4.62769412 22.3336471,8.39498824 L22.3336471,15.8589882 Z" id="Fill-18" stroke="none" fill="#FFDAAD" fill-rule="evenodd"></path>
                        <path d="M15.2941176,36.2280856 L15.2941176,25.2757647 C15.2941176,25.2757647 13.7390395,24.8905009 12.7977255,23.7365164 C12.7977255,23.7365164 11.8929457,23.3268762 11.7969759,23.5262635 C10.7518241,25.697677 4.46335747,24.7794356 2.68414339,26.936 C1.15379045,29.0543529 0.094496334,36.2280856 0.094496334,36.2280856 L15.2941176,36.2280856 Z" id="Fill-20" stroke="none" fill="#D5DBE0" fill-rule="evenodd"></path>
                        <path d="M30.6541668,36.2280856 L30.6541668,25.4405856 C30.6541668,25.4405856 28.9377176,25.0553217 27.9964036,23.9013373 C27.9964036,23.9013373 27.0916237,23.491697 26.9956539,23.6910844 C25.9505022,25.8624978 19.6620355,24.9442565 17.8828214,27.1008208 C16.3524685,29.2191738 15.2931744,36.2280856 15.2931744,36.2280856 L30.6541668,36.2280856 Z" id="Fill-20" stroke="none" fill="#C3D0D9" fill-rule="evenodd" transform="translate(22.973671, 29.932225) scale(-1, 1) translate(-22.973671, -29.932225) "></path>
                        <polyline id="Mask" stroke="none" fill="#D5DBE0" fill-rule="evenodd" points="15.2704471 32.3470973 15.2939765 24.9481882 10.9857412 24.0658353 15.2939765 36.2673326"></polyline>
                        <polygon id="Mask" stroke="none" fill="#436B85" fill-rule="evenodd" points="15.7808 27.4050824 16.7546824 26.4241412 15.2942118 24.9516706 13.8337412 26.4241412 14.8073882 27.4053176 13.4808 33.6712856 15.2939765 36.2672856 17.1135059 33.6712856"></polygon>
                        <polygon id="Mask" stroke="none" fill="#315D76" fill-rule="evenodd" points="16.7545882 26.4241647 15.2941176 24.9516941 15.2703529 24.9754588 15.2703529 36.2338973 15.2938824 36.2673091 17.1134118 33.6713091 15.7807059 27.4051059"></polygon>
                        <polygon id="Mask" stroke="none" fill="#E5EBF0" fill-rule="evenodd" points="15.2938824 24.9487529 18.7505882 23.2007529 20.5324706 24.2395765 17.6258824 28.3896941"></polygon>
                        <polygon id="Mask" stroke="none" fill="#FFFFFF" fill-rule="evenodd" points="15.2943529 24.9487529 11.8376471 23.2007529 10.0550588 24.2395765 13.5665882 28.3896941"></polygon>
                        <path d="M16.9148706,17.9539059 L13.4922824,17.9539059 C13.4922824,18.7854353 14.2581647,19.4595529 15.2035765,19.4595529 C16.1489882,19.4595529 16.9148706,18.7854353 16.9148706,17.9539059 Z" id="Mask" stroke="none" fill="#FFFFFF" fill-rule="evenodd"></path>
                        <path d="M18.6512,13.3255765 C18.3262588,13.3255765 18.0627294,13.5888706 18.0627294,13.9138118 C18.0627294,14.2387529 18.3262588,14.5020471 18.6512,14.5020471 C18.9761412,14.5020471 19.2392,14.2387529 19.2392,13.9138118 C19.2392,13.5888706 18.9761412,13.3255765 18.6512,13.3255765 Z" id="Mask" stroke="none" fill="#726658" fill-rule="evenodd"></path>
                        <path d="M11.8148,13.0907529 C11.4898588,13.0907529 11.2268,13.3540471 11.2268,13.6789882 C11.2268,14.0034588 11.4898588,14.2667529 11.8148,14.2667529 C12.1397412,14.2667529 12.4032706,14.0034588 12.4032706,13.6789882 C12.4032706,13.3540471 12.1397412,13.0907529 11.8148,13.0907529 Z" id="Mask" stroke="none" fill="#726658" fill-rule="evenodd"></path>
                        <path d="M12.9132235,12.5131294 C12.7031059,12.2303059 12.2826353,12.0545412 11.8151059,12.0545412 C11.3473412,12.0545412 10.9268706,12.2303059 10.7169882,12.5131294 C10.6788706,12.5653647 10.6047529,12.5759529 10.5522824,12.5373647 C10.5005176,12.4987765 10.4894588,12.4248941 10.5280471,12.3728941 C10.7812235,12.0314824 11.2744,11.8192471 11.8151059,11.8192471 C12.3558118,11.8192471 12.8487529,12.0314824 13.1019294,12.3728941 C13.1405176,12.4248941 13.1296941,12.4987765 13.0776941,12.5373647 C13.0565176,12.5531294 13.0320471,12.5604235 13.0075765,12.5604235 C12.9715765,12.5604235 12.9360471,12.5441882 12.9132235,12.5131294 Z" id="Mask" stroke="none" fill="#61402F" fill-rule="evenodd"></path>
                        <path d="M19.7631765,12.5131294 C19.5532941,12.2303059 19.1325882,12.0545412 18.6650588,12.0545412 C18.1975294,12.0545412 17.7768235,12.2303059 17.5671765,12.5131294 C17.5288235,12.5653647 17.4549412,12.5759529 17.4024706,12.5373647 C17.3504706,12.4987765 17.3396471,12.4248941 17.3782353,12.3728941 C17.6314118,12.0314824 18.1245882,11.8192471 18.6650588,11.8192471 C19.2055294,11.8192471 19.6987059,12.0314824 19.9518824,12.3728941 C19.9907059,12.4248941 19.9798824,12.4987765 19.9276471,12.5373647 C19.9067059,12.5531294 19.8817647,12.5604235 19.8575294,12.5604235 C19.8217647,12.5604235 19.786,12.5441882 19.7631765,12.5131294 Z" id="Mask" stroke="none" fill="#61402F" fill-rule="evenodd"></path>
                        <path d="M8.22216471,12.7396471 L9.12216471,6.46670588 C9.12216471,6.46670588 7.06898824,5.66317647 6.64734118,8.12576471 C6.22522353,10.5883529 7.54710588,12.7396471 7.54710588,12.7396471 L8.22216471,12.7396471 Z" id="Mask" stroke="none" fill="#61402F" fill-rule="evenodd"></path>
                        <path d="M21.992,12.7396471 L21.092,6.46670588 C21.092,6.46670588 23.1451765,5.66317647 23.5665882,8.12576471 C23.9889412,10.5883529 22.6668235,12.7396471 22.6668235,12.7396471 L21.992,12.7396471 Z" id="Mask" stroke="none" fill="#61402F" fill-rule="evenodd"></path>
                        <mask id="mask-4" fill="white">
                            <use xlink:href="#path-3"></use>
                        </mask>
                        <use id="Mask" stroke="none" fill="#61402F" fill-rule="evenodd" xlink:href="#path-3"></use>
                    </g>
                </g>
            </g>
        </g>
    </g>
</svg>